<svg width="51" height="53" viewBox="0 0 51 53" fill="none" xmlns="http://www.w3.org/2000/svg">
<path d="M4.78125 34.7812L15.7441 23.3885C16.1881 22.9271 16.7152 22.5611 17.2953 22.3114C17.8754 22.0616 18.4971 21.9331 19.125 21.9331C19.7529 21.9331 20.3746 22.0616 20.9547 22.3114C21.5348 22.5611 22.0619 22.9271 22.5059 23.3885L33.4688 34.7812M30.2812 31.4687L33.2754 28.3572C33.7194 27.8958 34.2464 27.5298 34.8265 27.2801C35.4066 27.0304 36.0284 26.9019 36.6562 26.9019C37.2841 26.9019 37.9059 27.0304 38.486 27.2801C39.0661 27.5298 39.5931 27.8958 40.0371 28.3572L46.2188 34.7812M7.96875 43.0625H43.0312C43.8766 43.0625 44.6874 42.7135 45.2852 42.0923C45.8829 41.4711 46.2188 40.6285 46.2188 39.75V13.25C46.2188 12.3715 45.8829 11.5289 45.2852 10.9077C44.6874 10.2865 43.8766 9.9375 43.0312 9.9375H7.96875C7.12337 9.9375 6.31262 10.2865 5.71485 10.9077C5.11708 11.5289 4.78125 12.3715 4.78125 13.25V39.75C4.78125 40.6285 5.11708 41.4711 5.71485 42.0923C6.31262 42.7135 7.12337 43.0625 7.96875 43.0625ZM30.2812 18.2187H30.2983V18.2364H30.2812V18.2187ZM31.0781 18.2187C31.0781 18.4384 30.9942 18.649 30.8447 18.8043C30.6953 18.9596 30.4926 19.0469 30.2812 19.0469C30.0699 19.0469 29.8672 18.9596 29.7178 18.8043C29.5683 18.649 29.4844 18.4384 29.4844 18.2187C29.4844 17.9991 29.5683 17.7885 29.7178 17.6332C29.8672 17.4779 30.0699 17.3906 30.2812 17.3906C30.4926 17.3906 30.6953 17.4779 30.8447 17.6332C30.9942 17.7885 31.0781 17.9991 31.0781 18.2187Z" stroke="#AE8E48" stroke-width="2" stroke-linecap="round" stroke-linejoin="round"/>
</svg>
